/vscmnt/brussel_pixiu_data/_data_brussel/112/vsc11236/PredSimResults/SUBJ11mtu3D/weighted-LRposFixed/expIG/worker_01.mot
version=1
nRows=7
nColumns=50
inDegrees=yes
endheader
                time	         pelvis_tilt	         pelvis_list	     pelvis_rotation	           pelvis_tx	           pelvis_ty	           pelvis_tz	       hip_flexion_r	     hip_adduction_r	      hip_rotation_r	        knee_angle_r	       ankle_angle_r	         mtp_angle_r	       hip_flexion_l	     hip_adduction_l	      hip_rotation_l	        knee_angle_l	       ankle_angle_l	         mtp_angle_l	    lumbar_extension	      lumbar_bending	     lumbar_rotation	 ercspn_r/activation	 intobl_r/activation	 extobl_r/activation	    abd_r/activation	    add_r/activation	hamstrings_r/activation	bifemsh_r/activation	glut_max_r/activation	iliopsoas_r/activation	rect_fem_r/activation	  vasti_r/activation	gastroc_r/activation	 soleus_r/activation	tib_ant_r/activation	 ercspn_l/activation	 intobl_l/activation	 extobl_l/activation	    abd_l/activation	    add_l/activation	hamstrings_l/activation	bifemsh_l/activation	glut_max_l/activation	iliopsoas_l/activation	rect_fem_l/activation	  vasti_l/activation	gastroc_l/activation	 soleus_l/activation	tib_ant_l/activation	
          1.37509647	         -6.32672595	         -4.70882577	          7.92429341	          1.51260611	          0.93687288	         -0.01614457	         32.07572407	          1.22314853	         -4.47992703	         -5.28505593	          5.36299378	          0.23345497	        -12.77672397	         -5.33132111	          3.18523843	         -8.91969619	         11.46547968	         29.82922151	         -4.13415355	          3.51829924	         -2.67350862	          0.08203978	          0.11320144	          0.02199451	          0.01341649	          0.13117085	          0.04253393	          0.20735700	          0.05890246	          0.07732295	          0.01000361	          0.01000074	          0.02282408	          0.01000093	          0.29418577	          0.06640178	          0.01000032	          0.01000104	          0.04189557	          0.03059814	          0.02204472	          0.10924161	          0.03451897	          0.42939941	          0.01001236	          0.01322572	          0.30634422	          0.24444484	          0.01000008	
          1.38884743	         -6.42901822	         -4.57222918	          7.91876353	          1.53138793	          0.93499230	         -0.01543735	         31.89244378	          1.26715420	         -4.52771771	         -6.70765040	          4.96305275	          0.18801348	        -12.81482248	         -5.26329853	          2.79849424	        -10.71465360	         10.73318575	         32.00140504	         -3.80610519	          3.81979950	         -2.87251434	          0.06674716	          0.09944088	          0.01789365	          0.04589612	          0.10671744	          0.05573160	          0.16869577	          0.08364955	          0.06290601	          0.01000078	          0.01000021	          0.01856890	          0.01229248	          0.32654235	          0.07977082	          0.01000019	          0.01000075	          0.03408411	          0.02827960	          0.02079496	          0.08887355	          0.02808289	          0.41028333	          0.01000420	          0.02163571	          0.25847850	          0.21746066	          0.01000006	
          1.40259840	         -6.50861417	         -4.43328000	          7.86371499	          1.55031564	          0.93359408	         -0.01462549	         31.55417489	          1.30937270	         -4.58907923	         -7.89081842	          4.35756964	          0.17883468	        -12.61804129	         -5.18688375	          2.39084193	        -12.95332203	          9.82717553	         34.20350970	         -3.49008726	          4.12740629	         -3.04150529	          0.07866505	          0.08090010	          0.01455740	          0.11278787	          0.12946654	          0.05120986	          0.13724274	          0.10730174	          0.05117713	          0.01000062	          0.01000018	          0.01510681	          0.01000063	          0.36911768	          0.11127583	          0.01000019	          0.01000071	          0.02772910	          0.02918889	          0.02213366	          0.07230317	          0.02284682	          0.39145316	          0.01003974	          0.01760192	          0.21028488	          0.17691496	          0.01000006	
          1.41634936	         -6.56478004	         -4.29267210	          7.76315067	          1.56908289	          0.93288094	         -0.01371977	         31.17266916	          1.36133964	         -4.66279759	         -9.00954847	          3.72292654	          0.13610688	        -12.08925441	         -5.10126429	          1.96847886	        -15.76272700	          8.73251620	         36.32275747	         -3.21386145	          4.44248392	         -3.17651101	          0.08174431	          0.06581626	          0.01184324	          0.14644283	          0.15298062	          0.04720440	          0.11165397	          0.12625663	          0.04163512	          0.01000090	          0.04010089	          0.01229052	          0.01000197	          0.40271886	          0.14276645	          0.01000020	          0.01000070	          0.02255899	          0.05394601	          0.01801587	          0.05882250	          0.01858702	          0.35986056	          0.01000162	          0.01432008	          0.17107700	          0.14392896	          0.01000007	
          1.43010033	         -6.59645957	         -4.14667426	          7.61975638	          1.58754618	          0.93292700	         -0.01274940	         30.75294959	          1.41924658	         -4.73813342	        -10.12054843	          3.31602573	          0.09969814	        -11.18674685	         -5.00493924	          1.52694591	        -19.18254972	          7.43647617	         38.15417181	         -2.98490430	          4.76102810	         -3.27419468	          0.08047745	          0.05354480	          0.01000026	          0.15434679	          0.13365102	          0.04970181	          0.09083627	          0.12170197	          0.03387222	          0.01000066	          0.08800869	          0.01000119	          0.01000087	          0.41952305	          0.14841729	          0.01000027	          0.01000067	          0.01835285	          0.07085952	          0.01857951	          0.04785608	          0.01512146	          0.30958817	          0.01000048	          0.01165013	          0.13917948	          0.11709324	          0.01000019	
          1.44385129	         -6.60536084	         -3.98314622	          7.43635030	          1.60562292	          0.93373806	         -0.01175167	         30.25073887	          1.47274982	         -4.79239207	        -11.12540084	          3.08549412	          0.07123148	         -9.92163928	         -4.89394154	          1.05851143	        -23.16277995	          5.99748187	         39.28931014	         -2.80714678	          5.07087738	         -3.33309638	          0.06666466	          0.04356138	          0.01000033	          0.15111770	          0.10873175	          0.04609312	          0.07390006	          0.11999186	          0.02755673	          0.01000065	          0.14145101	          0.01000393	          0.01000271	          0.41836877	          0.16201024	          0.01000029	          0.01000094	          0.01493095	          0.08069422	          0.01511575	          0.04665251	          0.01230206	          0.25306672	          0.01000034	          0.01000006	          0.11322929	          0.09526106	          0.01000014	
          1.45760226	         -6.59445036	         -3.79209385	          7.21377236	          1.62326930	          0.93534688	         -0.01075536	         29.60808669	          1.51889592	         -4.79329079	        -11.90773319	          3.00127163	          0.04857134	         -8.32825293	         -4.76966778	          0.56342675	        -27.61252364	          4.45876859	         39.36297889	         -2.68137735	          5.35996617	         -3.35256821	          0.05423628	          0.03543937	          0.01000027	          0.14011959	          0.08845864	          0.04401535	          0.06012160	          0.11627192	          0.02241877	          0.01000064	          0.18020151	          0.01002502	          0.01001691	          0.40977556	          0.16957790	          0.01000025	          0.01000552	          0.01214707	          0.09260092	          0.01229764	          0.06977716	          0.01000834	          0.20588225	          0.01000027	          0.01000004	          0.09211755	          0.07749953	          0.01480379	
